<!--?xml version="1.0" encoding="utf-8"?-->
<!-- Generator: Adobe Illustrator 18.1.1, SVG Export Plug-In . SVG Version: 6.00 Build 0)  -->

<svg version="1.1" id="_x32_" xmlns="http://www.w3.org/2000/svg" xmlns:xlink="http://www.w3.org/1999/xlink" x="0px" y="0px" viewBox="0 0 512 512" style="width: 256px; height: 256px; opacity: 1;" xml:space="preserve">
<style type="text/css">
	.st0{fill:#4B4B4B;}
</style>
<g>
	<path class="st0" d="M256,0C114.607,0.009,0.012,114.602,0,256.004C0.012,397.389,114.607,511.991,256,512
		c141.393-0.009,255.987-114.611,256-255.996C511.987,114.602,397.393,0.009,256,0z M411.761,411.761
		C371.84,451.651,316.885,476.27,256,476.279c-60.886-0.009-115.841-24.628-155.761-64.518c-0.27-0.271-0.523-0.558-0.794-0.829
		c4.444-2.093,8.817-4.299,13.038-6.742c6.401-3.706,8.586-11.904,4.875-18.305c-3.707-6.401-11.905-8.581-18.306-4.875
		c-5.704,3.306-11.656,6.236-17.818,8.748c-0.052,0.018-0.096,0.052-0.144,0.078c-28.448-37.116-45.362-83.425-45.37-133.832
		c0.008-60.89,24.628-115.85,64.518-155.766C140.159,60.349,195.114,35.73,256,35.721c60.885,0.009,115.84,24.628,155.761,64.518
		c0.27,0.271,0.522,0.558,0.793,0.829c-4.556,2.145-9.044,4.404-13.365,6.924c-6.392,3.724-8.56,11.921-4.836,18.322
		c3.724,6.384,11.926,8.547,18.319,4.831c5.695-3.313,11.638-6.261,17.796-8.782c0.152-0.061,0.274-0.156,0.422-0.226
		c28.462,37.116,45.38,83.442,45.389,133.867C476.27,316.886,451.65,371.836,411.761,411.761z" style="fill: rgb(51, 51, 51);"></path>
	<path class="st0" d="M170.172,323.243c-6.406-3.698-14.598-1.509-18.301,4.892c-3.328,5.756-7.038,11.268-11.107,16.483
		c-4.543,5.843-3.497,14.25,2.342,18.803c5.834,4.544,14.25,3.497,18.798-2.337c4.814-6.192,9.219-12.715,13.165-19.535
		C178.771,335.138,176.578,326.949,170.172,323.243z" style="fill: rgb(51, 51, 51);"></path>
	<path class="st0" d="M131.425,120.541c-6.201-4.796-12.742-9.174-19.579-13.099c-6.419-3.688-14.604-1.464-18.288,4.954
		c-3.68,6.419-1.461,14.599,4.958,18.28c5.764,3.314,11.285,7.012,16.517,11.058c5.852,4.518,14.264,3.444,18.79-2.407
		C138.349,133.484,137.276,125.068,131.425,120.541z" style="fill: rgb(51, 51, 51);"></path>
	<path class="st0" d="M160.361,201.114c2.816,6.837,10.644,10.107,17.486,7.291c6.841-2.817,10.103-10.64,7.29-17.486
		c-3.004-7.3-6.497-14.354-10.438-21.105c-3.733-6.384-11.935-8.546-18.323-4.814c-6.388,3.732-8.546,11.93-4.814,18.322
		C154.884,189.018,157.832,194.958,160.361,201.114z" style="fill: rgb(51, 51, 51);"></path>
	<path class="st0" d="M184.496,241.912c-7.4,0.026-13.368,6.052-13.338,13.456v0.628c0,6.732-0.463,13.36-1.352,19.832
		c-1.003,7.325,4.12,14.093,11.45,15.096c7.33,1.004,14.089-4.125,15.092-11.45c1.055-7.683,1.6-15.524,1.6-23.477v-0.75
		C197.914,247.85,191.891,241.877,184.496,241.912z" style="fill: rgb(51, 51, 51);"></path>
	<path class="st0" d="M340.838,256.318v-0.322c0-6.628,0.445-13.134,1.308-19.517c0.99-7.326-4.151-14.076-11.485-15.07
		c-7.33-0.986-14.076,4.151-15.066,11.485c-1.021,7.562-1.548,15.271-1.548,23.102v0.384c0.017,7.395,6.026,13.378,13.426,13.36
		C334.868,269.722,340.855,263.722,340.838,256.318z" style="fill: rgb(51, 51, 51);"></path>
	<path class="st0" d="M351.516,310.598c-2.8-6.846-10.622-10.134-17.473-7.334c-6.846,2.8-10.13,10.622-7.33,17.468
		c2.992,7.318,6.466,14.364,10.396,21.131c3.715,6.393,11.913,8.564,18.31,4.849c6.397-3.715,8.572-11.913,4.857-18.314
		C356.962,322.702,354.032,316.754,351.516,310.598z" style="fill: rgb(51, 51, 51);"></path>
	<path class="st0" d="M413.209,381.159v0.009c-5.761-3.323-11.272-7.029-16.496-11.093c-5.843-4.535-14.254-3.479-18.794,2.364
		c-4.539,5.834-3.484,14.25,2.355,18.794c6.191,4.806,12.719,9.2,19.552,13.142c6.41,3.698,14.599,1.491,18.297-4.918
		C421.816,393.055,419.618,384.857,413.209,381.159z" style="fill: rgb(51, 51, 51);"></path>
	<path class="st0" d="M368.658,148.832c-5.848-4.535-14.264-3.462-18.794,2.381c-4.805,6.201-9.192,12.733-13.12,19.561
		c-3.694,6.419-1.483,14.599,4.931,18.297c6.41,3.689,14.599,1.482,18.288-4.937c3.318-5.764,7.02-11.276,11.071-16.508
		C375.568,161.783,374.5,153.367,368.658,148.832z" style="fill: rgb(51, 51, 51);"></path>
</g>
</svg>
