<!--?xml version="1.0" encoding="utf-8"?-->
<!-- Generator: Adobe Illustrator 18.1.1, SVG Export Plug-In . SVG Version: 6.00 Build 0)  -->

<svg version="1.1" id="_x32_" xmlns="http://www.w3.org/2000/svg" xmlns:xlink="http://www.w3.org/1999/xlink" x="0px" y="0px" viewBox="0 0 512 512" style="width: 256px; height: 256px; opacity: 1;" xml:space="preserve">
<style type="text/css">
	.st0{fill:#4B4B4B;}
</style>
<g>
	<polygon class="st0" points="280.402,153.66 256.008,129.275 231.606,153.66 256.008,178.063 	" style="fill: rgb(51, 51, 51);"></polygon>
	<polygon class="st0" points="238.754,436.426 256.008,453.656 273.254,436.426 273.254,417.37 238.754,417.37 	" style="fill: rgb(51, 51, 51);"></polygon>
	<polygon class="st0" points="369.403,291.465 393.797,315.851 418.19,291.465 393.797,267.063 	" style="fill: rgb(51, 51, 51);"></polygon>
	<polygon class="st0" points="118.203,267.063 93.809,291.465 118.203,315.851 142.597,291.465 	" style="fill: rgb(51, 51, 51);"></polygon>
	<path class="st0" d="M372.088,245.361l-69.985-69.984c-11.796,11.796-28.096,19.097-46.095,19.097
		c-18.015,0-34.315-7.301-46.111-19.097l-69.976,69.984c11.796,11.789,19.089,28.097,19.089,46.104
		c0,17.999-7.293,34.299-19.089,46.104l69.976,69.976c11.796-11.796,28.096-19.089,46.111-19.089
		c17.999,0,34.299,7.293,46.095,19.089l69.985-69.976c-11.804-11.804-19.097-28.104-19.097-46.104
		C352.99,273.459,360.283,257.151,372.088,245.361z M277.052,296.458h-44.669v-12.565h44.669V296.458z" style="fill: rgb(51, 51, 51);"></path>
	<path class="st0" d="M511.871,256.717c-1.779-67.973-30.084-129.334-74.881-174.099C390.688,36.291,326.674,7.625,256.008,7.633
		C185.326,7.625,121.312,36.291,75.009,82.618C30.212,127.383,1.907,188.744,0.128,256.717L0,261.79l233.096,233.088
		c6.291,6.306,14.649,9.513,22.912,9.488c8.238,0.025,16.604-3.182,22.903-9.488L512,261.79L511.871,256.717z M262.21,478.194
		c-1.747,1.739-3.927,2.564-6.202,2.572c-2.292-0.008-4.472-0.834-6.219-2.581L23.978,252.382
		c2.837-59.75,28.112-113.459,67.732-153.079c42.104-42.088,100.06-68.06,164.298-68.069c64.23,0.008,122.178,25.981,164.29,68.069
		c39.612,39.62,64.896,93.329,67.716,153.088L262.21,478.194z" style="fill: rgb(51, 51, 51);"></path>
</g>
</svg>
